<?xml version="1.0" encoding="utf-8"?>
<!-- Generator: Adobe Illustrator 16.0.0, SVG Export Plug-In . SVG Version: 6.00 Build 0)  -->
<!DOCTYPE svg PUBLIC "-//W3C//DTD SVG 1.1//EN" "http://www.w3.org/Graphics/SVG/1.1/DTD/svg11.dtd">
<svg version="1.1" id="Capa_1" xmlns="http://www.w3.org/2000/svg" xmlns:xlink="http://www.w3.org/1999/xlink" x="0px" y="0px"
	 width="80px" height="80px" viewBox="0 0 80 80" enable-background="new 0 0 80 80" xml:space="preserve">
<g opacity="0.4">
	<path fill="#010101" d="M61.005,54.404h-6.879v-17.32c0-1.462-0.556-2.804-1.564-3.813c-1.01-1.009-2.352-1.565-3.779-1.565
		c-2.918,0-5.301,2.356-5.343,5.266v17.434h-6.879V36.943c-0.055-2.895-2.433-5.238-5.344-5.238c-2.947,0-5.345,2.397-5.345,5.344
		l0.001,17.355h-6.879V37.049c0-6.738,5.483-12.221,12.222-12.221c3.33,0,6.503,1.387,8.783,3.741
		c2.28-2.354,5.453-3.741,8.782-3.741c6.739,0,12.223,5.482,12.223,12.221V54.404z"/>
</g>
</svg>
